<?xml version="1.0" encoding="UTF-8" standalone="no"?>
<svg width="512" height="512" viewBox="0 0 295.45047 295.45047" xmlns="http://www.w3.org/2000/svg" xmlns:svg="http://www.w3.org/2000/svg">
  <g aria-label="Logo: A rocket with a calculator painted on it">
    <path style="fill: #fff;" d="M278.27205,21.97518c-31.9576,-8.29411,-68.76281,0.83907,-86.11751,11.25637l-24.94778,24.83466c-29.582,-7.37642,-62.22685,-9.27524,-102.75138,25.4255c18.0531,0.76757,42.10966,3.90409,55.44977,20.2543c-0.11467,0.11266,0.18,0.54163,0.18,0.54163l1.21047,1.2374a50.42263,50.42263,0,0,0,-18.98409,27.4899a48.21078,48.21078,0,0,0,-1.55526,9.38573a90.01506,90.01506,0,0,0,-25.94841,10.93078a93.53423,93.53423,0,0,0,-21.84174,18.72782a90.31479,90.31479,0,0,0,-14.98653,24.64059c-3.88026,9.54018,-6.41309,19.54337,-9.47332,29.35838c-3.00421,9.6355,-6.589,19.31588,-12.57688,27.54q-1.11444,1.53065,-2.32948,2.98331a0.9607,0.9607,0,0,0,0.46967,1.56548a150.86266,150.86266,0,0,0,33.20985,3.369a153.02273,153.02273,0,0,0,32.98113,-3.935a143.767,143.767,0,0,0,31.23181,-11.01558c9.41885,-4.64969,18.24035,-10.65129,24.91482,-18.85905c6.75618,-8.30865,11.25669,-18.13481,15.39817,-27.93063q0.52694,-1.247,1.04752,-2.49646a11.18431,11.18431,0,0,0,7.62836,2.26959a17.67588,17.67588,0,0,0,9.60269,-3.92761a105.15613,105.15613,0,0,0,8.97672,-8.19166q4.86262,-4.65046,9.72541,-9.30124l1.82252,-1.74313l1.33226,1.36213c18.213,13.522,21.28325,40.10964,21.71129,57.93835c35.62508,-40.079,33.7142,-73.42225,26.82756,-103.22384l24.82491,-24.71426c11.618,-18.164,21.588,-56.14,12.967,-85.772z" />
    <path style="fill: #f1ae1d;" d="M139.28515,188.4014c-16.21362,33.00066,-49.60059,39.43858,-77.83378,43.15026c12.22216,-6.91517,28.98482,-16.5979,38.68228,-46.64254c-19.58383,1.64005,-30.012,19.45532,-30.012,19.45532c2.67143,-19.94131,24.18717,-42.01216,38.25582,-47.49819c10.571,14.893,30.908,31.535,30.908,31.535z" />
    <path style="fill: none;stroke: #2b3154;stroke-miterlimit: 10;stroke-width: 3.80319px;" d="M139.28515,188.4014c-16.21362,33.00066,-49.60059,39.43858,-77.83378,43.15026c12.22216,-6.91517,35.20606,-26.41679,38.68228,-46.64254c-10.9105,-0.21852,-30.012,19.45532,-30.012,19.45532c3.61337,-26.03858,24.18717,-42.01216,38.25582,-47.49819c10.571,14.893,30.908,31.535,30.908,31.535z" />
    <path style="fill: #2b3154;" d="M213.6518,239.48889a3.80273,3.80273,0,0,1,-3.80133,-3.71158c-0.65863,-27.40231,-7.25851,-45.38515,-20.17723,-54.9767l4.53424,-6.10715c13.24123,9.83049,20.7201,26.6174,22.74055,51.16051c12.11339,-15.30687,19.43813,-30.53016,22.31838,-46.31676c3.183,-17.44864,0.52616,-33.15538,-2.49213,-46.21958a3.803,3.803,0,0,1,1.022,-3.55125l24.52391,-24.415c5.75864,-9.15082,10.72619,-22.89716,13.318,-36.88306c2.07368,-11.18735,3.61192,-27.583,-0.44383,-43.335c-16.96891,-3.961,-33.645,-2.65183,-44.83485,-0.7948c-13.64173,2.26248,-26.9981,6.70758,-35.8555,11.9215l-24.61367,24.501a3.80131,3.80131,0,0,1,-3.60326,0.99475c-12.05025,-3.00344,-28.13335,-6.06134,-45.70146,-3.009c-15.56128,2.70383,-30.74867,9.79273,-46.20534,21.59724c16.678,1.5859,36.41323,6.21795,48.47215,20.998a3.80493,3.80493,0,0,1,0.60911,3.75429a3.412,3.412,0,0,0,-0.23956,-2.95949l-6.273,4.30212a5.367,5.367,0,0,1,-0.5014,-0.90128c-12.70764,-14.89275,-35.79731,-17.55077,-52.1534,-18.24654a3.803,3.803,0,0,1,-2.312,-6.68839c40.927,-35.04522,74.21366,-33.87467,104.05424,-26.73812l23.43508,-23.328a3.80279,3.80279,0,0,1,0.7261,-0.56578c19.61084,-11.77232,57.48,-19.86463,89.02964,-11.677a3.80184,3.80184,0,0,1,2.69641,2.619c9.36747,32.19591,-2.20553,71.35878,-13.41517,88.88417a3.84248,3.84248,0,0,1,-0.52059,0.64563l-23.33418,23.23019c6.772,30.56235,7.53273,64.38564,-28.15874,104.53954a3.80265,3.80265,0,0,1,-2.843,1.277z" />
    <path style="fill: #2b3154;" d="M20.38077,254.78382c7.76461,-8.78475,12.6789,-21.86812,16.54861,-34.46231c5.8286,-18.97241,12.43591,-40.47675,34.13089,-57.86576a114.58,114.58,0,0,1,27.01924,-15.721a0.48293,0.48293,0,0,1,0.61418,0.17063a129.41891,129.41891,0,0,0,50.99416,51.97963c-19.906,42.771,-73.839,63.85,-129.307,55.899zm84.02761,-134.5287c-3.51913,4.33431,-9.78215,12.66584,-10.06154,14.67529c0,0,1.23373,6.41126,4.29434,9.49807s-1.0322,-2.50048,-1.0322,-2.50048c-13.63235,0.9605,-23.75007,6.41276,-31.80461,12.869c-23.90675,19.16154,-31.76729,43.58,-37.67876,62.82012c-4.5421,14.7837,-9.77526,32.84811,-28.10349,42.89257c0,0,8.08958,1.39135,8.88312,1.57275c53.641,12.262,106.138,-5.343,132.84,-34.912c6.70355,-7.42339,12.03648,-18.36,12.72616,-26.23142c0,0,-5.41937,-4.08224,-2.01313,-0.64684s8.81713,4.32278,8.81713,4.32278c4.73669,-2.10166,9.02806,-5.87242,15.48136,-11.05994l6.95419,-6.16314c7.93739,-7.069,23.16066,-20.71454,35.35321,-42.716c-21.0566,20.38335,-33.04152,31.87331,-43.96237,40.69533c-6.96854,5.62929,-9.96893,7.63412,-13.08068,9.068c-8.76137,-2.793,-21.48524,-10.79838,-35.31336,-24.62651c-14.1115,-14.1115,-18.92251,-25.56846,-22.61544,-34.97483c0,0,0.91525,-4.006,8.84581,-13.34635c9.53907,-11.23484,18.97331,-22.231,40.39953,-43.10472c-18.40949,9.82106,-35.87138,27.10375,-43.00773,34.98061z" />
    <path style="fill: #2b3154;" d="M268.48518,100.01682c-8.53075,-0.358,-23.81564,-9.17016,-41.945,-27.29947c-20.20707,-20.20708,-25.19955,-35.28427,-25.04986,-43.59118c0.06695,-3.715,-8.07752,3.24976,-8.07752,3.24976s4.66842,15.1018,30.99573,42.39745s40.52707,32.01936,40.52707,32.01936c1.197,-0.767,7.757,-6.599,3.55,-6.776z" />
    <path style="fill: #2b3154;" d="
          M229.77621,121.17582a2.74181,2.74181,0,0,1,-0.74591,-0.10151a2.543,2.543,0,0,1,-0.76447,-0.3646c-20.47188,-14.3963,-36.59336,-30.93623,-49.28615,-50.56564a2.53634,2.53634,0,0,1,-0.39555,-1.60633a3.1524,3.1524,0,0,1,0.85733,-1.85517l9.15886,-9.57112a3.17439,3.17439,0,0,1,0.6153,-0.5014a2.53723,2.53723,0,0,1,3.44107,0.73972c12.81845,19.07106,28.87369,35.42343,49.08311,49.99181a2.53554,2.53554,0,0,1,0.7131,3.32532a2.9698,2.9698,0,0,1,-0.5862,0.71805l-10.04652,9.0103a3.11088,3.11088,0,0,1,-2.044,0.781z

          m-59.59,-27.192c-0.08109,0,-0.1628,-0.00371,-0.24513,-0.01176a2.53763,2.53763,0,0,1,-1.87064,-1.1266c-1.623,-2.45808,-2.69765,-4.24145,-4.25879,-7.06723a2.53644,2.53644,0,0,1,0.4364,-3.02943l6.7893,-7.10932a2.53487,2.53487,0,0,1,4.02975,0.48468c1.42,2.4618,2.53175,4.226,4.24764,6.741a2.53714,2.53714,0,0,1,-0.28908,3.21081l-7.03194,7.15017a2.53343,2.53343,0,0,1,-1.807,0.758z

          m-15.709,16.134a2.61149,2.61149,0,0,1,-0.26865,-0.01424a2.53648,2.53648,0,0,1,-1.87312,-1.16373c-1.5011,-2.36895,-2.54289,-4.17646,-3.98023,-6.90629a2.536,2.536,0,0,1,0.4104,-2.93225l6.31513,-6.61164a2.53529,2.53529,0,0,1,4.05575,0.53111c1.31478,2.39371,2.35038,4.1127,3.95857,6.56769a2.53545,2.53545,0,0,1,-0.31384,3.16685l-6.4965,6.60483a2.53556,2.53556,0,0,1,-1.808,0.758z
          m-15.218,15.617a2.53875,2.53875,0,0,1,-2.16343,-1.21326c-1.4132,-2.312,-2.39,-4.07556,-3.73139,-6.74039a2.53532,2.53532,0,0,1,0.43083,-2.892l5.82364,-6.09538a2.53629,2.53629,0,0,1,4.07741,0.57134c1.21264,2.3052,2.21482,4.03718,3.6992,6.39066a2.53433,2.53433,0,0,1,-0.33674,3.13033l-5.992,6.091a2.533,2.533,0,0,1,-1.807,0.758z
          m-14.784,15.16a2.59287,2.59287,0,0,1,-0.30888,-0.01857a2.535,2.535,0,0,1,-1.87374,-1.22688c-1.32592,-2.24329,-2.24391,-3.96166,-3.50731,-6.56645a2.53557,2.53557,0,0,1,0.45126,-2.86168l5.81064,-6.05948a2.53551,2.53551,0,0,1,4.09227,0.61034c1.1235,2.221,2.06378,3.90409,3.46831,6.21052a2.53538,2.53538,0,0,1,-0.359,3.09814l-5.96725,6.05763a2.53362,2.53362,0,0,1,-1.807,0.756z

          m57.511,-31.071c-0.02786,0,-0.05509,-0.00062,-0.083,-0.00124a2.53509,2.53509,0,0,1,-1.80379,-0.84061c-2.091,-2.32933,-3.44541,-3.97157,-5.36681,-6.507a2.53538,2.53538,0,0,1,0.22346,-3.31913l7.16317,-7.20341a2.53528,2.53528,0,0,1,3.8032,0.23646c1.82236,2.356,3.19656,3.992,5.25044,6.25324a2.53541,2.53541,0,0,1,-0.10524,3.51844l-7.30988,7.14152a2.53391,2.53391,0,0,1,-1.772,0.722z
          m-16.166,15.976c-0.03219,0,-0.06376,-0.00062,-0.09595,-0.00185a2.53456,2.53456,0,0,1,-1.80751,-0.85919c-1.96535,-2.23338,-3.30055,-3.88985,-5.10249,-6.32875a2.53567,2.53567,0,0,1,0.242,-3.29437l6.61721,-6.65435a2.53552,2.53552,0,0,1,3.823,0.26246c1.719,2.28291,3.02014,3.86819,4.97064,6.05948a2.535,2.535,0,0,1,-0.12194,3.49988l-6.7534,6.59493a2.53606,2.53606,0,0,1,-1.772,0.722z
          m-15.638,15.454c-0.0359,0,-0.0718,-0.00062,-0.10832,-0.00247a2.53457,2.53457,0,0,1,-1.8106,-0.8759c-1.86632,-2.1622,-3.13714,-3.77225,-4.85551,-6.15357a2.53674,2.53674,0,0,1,0.25874,-3.27209l6.10653,-6.13933a2.53517,2.53517,0,0,1,3.84033,0.2866c1.62243,2.20677,2.85549,3.74253,4.7119,5.87006a2.53546,2.53546,0,0,1,-0.13927,3.48131l-6.23281,6.08425a2.5356,2.5356,0,0,1,-1.771,0.721z
          m-15.173,14.995c-0.03962,0,-0.07924,-0.00062,-0.11885,-0.0031a2.53462,2.53462,0,0,1,-1.81618,-0.89385c-1.77717,-2.09844,-2.98672,-3.66268,-4.62276,-5.979a2.53539,2.53539,0,0,1,0.27422,-3.251l6.07682,-6.10653a2.535,2.535,0,0,1,3.85457,0.307c1.52586,2.11949,2.7385,3.66021,4.473,5.685a2.53613,2.53613,0,0,1,-0.15351,3.46273l-6.195,6.05639a2.53434,2.53434,0,0,1,-1.772,0.722z

          m61.274,-32.235a2.52967,2.52967,0,0,1,-1.61747,-0.58372c-2.56889,-2.13,-4.20679,-3.602,-6.49094,-5.83355a2.53479,2.53479,0,0,1,0.01114,-3.63792l7.37674,-7.1186a2.53528,2.53528,0,0,1,3.53269,0.01052c2.24824,2.19686,3.89357,3.68434,6.28727,5.68374a2.5366,2.5366,0,0,1,0.10771,3.797l-7.4733,6.9979a2.53263,2.53263,0,0,1,-1.733,0.685z
          m-16.568,15.722a2.529,2.529,0,0,1,-1.61933,-0.585c-2.4717,-2.052,-4.044,-3.47141,-6.231,-5.62432a2.53529,2.53529,0,0,1,0.01734,-3.63111l6.81219,-6.57636a2.53646,2.53646,0,0,1,3.53888,0.0161c2.15292,2.117,3.72644,3.54507,6.01368,5.45719a2.53519,2.53519,0,0,1,0.10647,3.79576l-6.905,6.46308a2.53005,2.53005,0,0,1,-1.734,0.684z
          m-16.024,15.219a2.52932,2.52932,0,0,1,-1.62242,-0.58744c-2.34481,-1.95422,-3.90966,-3.37422,-5.98025,-5.42686a2.53513,2.53513,0,0,1,0.02476,-3.62492l6.28852,-6.06877a2.53474,2.53474,0,0,1,3.54506,0.02291c2.06378,2.04459,3.568,3.41693,5.74751,5.24425a2.53619,2.53619,0,0,1,0.10275,3.79452l-6.37332,5.9623a2.529,2.529,0,0,1,-1.732,0.684z
          m-15.541,14.776a2.52875,2.52875,0,0,1,-1.62738,-0.59177c-2.25134,-1.88551,-3.75305,-3.25785,-5.73884,-5.24363a2.53495,2.53495,0,0,1,0.03095,-3.615l6.24767,-6.04153a2.53608,2.53608,0,0,1,3.55373,0.02786c1.94678,1.94431,3.43612,3.31232,5.49371,5.04864a2.53511,2.53511,0,0,1,0.10151,3.78586l-6.32441,5.94187a2.5297,2.5297,0,0,1,-1.737,0.688z

          m64.903,-33.275a2.52861,2.52861,0,0,1,-1.34015,-0.38379c-3.04,-1.89416,-4.94465,-3.17613,-7.55006,-5.08021a2.53565,2.53565,0,0,1,-0.221,-3.91213l7.48383,-6.88958a2.53312,2.53312,0,0,1,3.23246,-0.16775c2.70384,2.01487,4.616,3.34079,7.30741,5.06659a2.53483,2.53483,0,0,1,0.31445,4.03037l-7.54324,6.69706a2.53205,2.53205,0,0,1,-1.684,0.64z
          m-16.898,15.352a2.53085,2.53085,0,0,1,-1.31911,-0.37078c-2.96567,-1.80751,-4.81094,-3.027,-7.31359,-4.832a2.53536,2.53536,0,0,1,-0.23646,-3.91895l6.90133,-6.37456a2.53547,2.53547,0,0,1,3.22133,-0.18075c2.60231,1.91212,4.44387,3.16561,7.0369,4.79051a2.53585,2.53585,0,0,1,0.34169,4.04028l-6.89577,6.15914a2.53523,2.53523,0,0,1,-1.736,0.687z
          m-32.097,29.053a2.53061,2.53061,0,0,1,-1.23678,-0.3225c-2.79235,-1.56115,-4.60481,-2.67536,-6.92672,-4.25755a2.53507,2.53507,0,0,1,-0.29526,-3.95485l22.30848,-20.678a2.8949,2.8949,0,0,1,0.59115,-0.41659a2.53718,2.53718,0,0,1,2.62584,0.1696c2.546,1.78028,4.34606,2.93225,6.88029,4.40364a2.535,2.535,0,0,1,0.4234,4.07617c-3.93381,3.54321,-7.677,6.89205,-11.47272,10.28856c-3.61564,3.23432,-7.27955,6.51136,-11.201,10.04095a2.53609,2.53609,0,0,1,-1.697,0.65z
          " />
  </g>
</svg>
