<?xml version="1.0" encoding="UTF-8" standalone="no"?>
<svg width="1000" height="384.93" viewBox="0 0 1000 384.93" xmlns="http://www.w3.org/2000/svg" xmlns:svg="http://www.w3.org/2000/svg">
  <style>
    .blue { fill: #2b3154; }
    .white { fill: #fff; }
    .yellow { fill: #f1ae1d; }
  </style>
  <title>Math Converter: An All-In-One XAML Converter</title>
  <g>
    <rect aria-label="Blue Background" class="blue" width="1000" height="384.93" />

    <g aria-label="Logo: A rocket with a calculator painted on it">
      <rect class="yellow" x="54.74" y="54.74046" width="275.45047" height="275.45047" rx="137.7251" />
      <path class="white" d="M323.01205,66.71564c-31.9576,-8.29411,-68.76281,0.83907,-86.11751,11.25637l-24.94778,24.83466c-29.582,-7.37642,-62.22685,-9.27524,-102.75138,25.4255c18.0531,0.76757,42.10966,3.90409,55.44977,20.2543c-0.11467,0.11266,0.18,0.54163,0.18,0.54163l1.21047,1.2374a50.42263,50.42263,0,0,0,-18.98409,27.4899a48.21078,48.21078,0,0,0,-1.55526,9.38573a90.01506,90.01506,0,0,0,-25.94841,10.93078a93.53423,93.53423,0,0,0,-21.84174,18.72782a90.31479,90.31479,0,0,0,-14.98653,24.64059c-3.88026,9.54018,-6.41309,19.54337,-9.47332,29.35838c-3.00421,9.6355,-6.589,19.31588,-12.57688,27.54q-1.11444,1.53065,-2.32948,2.98331a0.9607,0.9607,0,0,0,0.46967,1.56548a150.86266,150.86266,0,0,0,33.20985,3.369a153.02273,153.02273,0,0,0,32.98113,-3.935a143.767,143.767,0,0,0,31.23181,-11.01558c9.41885,-4.64969,18.24035,-10.65129,24.91482,-18.85905c6.75618,-8.30865,11.25669,-18.13481,15.39817,-27.93063q0.52694,-1.247,1.04752,-2.49646a11.18431,11.18431,0,0,0,7.62836,2.26959a17.67588,17.67588,0,0,0,9.60269,-3.92761a105.15613,105.15613,0,0,0,8.97672,-8.19166q4.86262,-4.65046,9.72541,-9.30124l1.82252,-1.74313l1.33226,1.36213c18.213,13.522,21.28325,40.10964,21.71129,57.93835c35.62508,-40.079,33.7142,-73.42225,26.82756,-103.22384l24.82491,-24.71426c11.618,-18.164,21.588,-56.14,12.967,-85.772z" />
      <path class="yellow" d="M184.02515,233.14186c-16.21362,33.00066,-49.60059,39.43858,-77.83378,43.15026c12.22216,-6.91517,28.98482,-16.5979,38.68228,-46.64254c-19.58383,1.64005,-30.012,19.45532,-30.012,19.45532c2.67143,-19.94131,24.18717,-42.01216,38.25582,-47.49819c10.571,14.893,30.908,31.535,30.908,31.535z" />
      <path style="fill: none;stroke: #2b3154;stroke-miterlimit: 10;stroke-width: 3.80319px;" d="M184.02515,233.14186c-16.21362,33.00066,-49.60059,39.43858,-77.83378,43.15026c12.22216,-6.91517,35.20606,-26.41679,38.68228,-46.64254c-10.9105,-0.21852,-30.012,19.45532,-30.012,19.45532c3.61337,-26.03858,24.18717,-42.01216,38.25582,-47.49819c10.571,14.893,30.908,31.535,30.908,31.535z" />
      <path class="blue" d="M258.3918,284.22935a3.80273,3.80273,0,0,1,-3.80133,-3.71158c-0.65863,-27.40231,-7.25851,-45.38515,-20.17723,-54.9767l4.53424,-6.10715c13.24123,9.83049,20.7201,26.6174,22.74055,51.16051c12.11339,-15.30687,19.43813,-30.53016,22.31838,-46.31676c3.183,-17.44864,0.52616,-33.15538,-2.49213,-46.21958a3.803,3.803,0,0,1,1.022,-3.55125l24.52391,-24.415c5.75864,-9.15082,10.72619,-22.89716,13.318,-36.88306c2.07368,-11.18735,3.61192,-27.583,-0.44383,-43.335c-16.96891,-3.961,-33.645,-2.65183,-44.83485,-0.7948c-13.64173,2.26248,-26.9981,6.70758,-35.8555,11.9215l-24.61367,24.501a3.80131,3.80131,0,0,1,-3.60326,0.99475c-12.05025,-3.00344,-28.13335,-6.06134,-45.70146,-3.009c-15.56128,2.70383,-30.74867,9.79273,-46.20534,21.59724c16.678,1.5859,36.41323,6.21795,48.47215,20.998a3.80493,3.80493,0,0,1,0.60911,3.75429a3.412,3.412,0,0,0,-0.23956,-2.95949l-6.273,4.30212a5.367,5.367,0,0,1,-0.5014,-0.90128c-12.70764,-14.89275,-35.79731,-17.55077,-52.1534,-18.24654a3.803,3.803,0,0,1,-2.312,-6.68839c40.927,-35.04522,74.21366,-33.87467,104.05424,-26.73812l23.43508,-23.328a3.80279,3.80279,0,0,1,0.7261,-0.56578c19.61084,-11.77232,57.48,-19.86463,89.02964,-11.677a3.80184,3.80184,0,0,1,2.69641,2.619c9.36747,32.19591,-2.20553,71.35878,-13.41517,88.88417a3.84248,3.84248,0,0,1,-0.52059,0.64563l-23.33418,23.23019c6.772,30.56235,7.53273,64.38564,-28.15874,104.53954a3.80265,3.80265,0,0,1,-2.843,1.277z" />
      <path class="blue" d="M65.12077,299.52428c7.76461,-8.78475,12.6789,-21.86812,16.54861,-34.46231c5.8286,-18.97241,12.43591,-40.47675,34.13089,-57.86576a114.58,114.58,0,0,1,27.01924,-15.721a0.48293,0.48293,0,0,1,0.61418,0.17063a129.41891,129.41891,0,0,0,50.99416,51.97963c-19.906,42.771,-73.839,63.85,-129.307,55.899zm84.02761,-134.5287c-3.51913,4.33431,-9.78215,12.66584,-10.06154,14.67529c0,0,1.23373,6.41126,4.29434,9.49807s-1.0322,-2.50048,-1.0322,-2.50048c-13.63235,0.9605,-23.75007,6.41276,-31.80461,12.869c-23.90675,19.16154,-31.76729,43.58,-37.67876,62.82012c-4.5421,14.7837,-9.77526,32.84811,-28.10349,42.89257c0,0,8.08958,1.39135,8.88312,1.57275c53.641,12.262,106.138,-5.343,132.84,-34.912c6.70355,-7.42339,12.03648,-18.36,12.72616,-26.23142c0,0,-5.41937,-4.08224,-2.01313,-0.64684s8.81713,4.32278,8.81713,4.32278c4.73669,-2.10166,9.02806,-5.87242,15.48136,-11.05994l6.95419,-6.16314c7.93739,-7.069,23.16066,-20.71454,35.35321,-42.716c-21.0566,20.38335,-33.04152,31.87331,-43.96237,40.69533c-6.96854,5.62929,-9.96893,7.63412,-13.08068,9.068c-8.76137,-2.793,-21.48524,-10.79838,-35.31336,-24.62651c-14.1115,-14.1115,-18.92251,-25.56846,-22.61544,-34.97483c0,0,0.91525,-4.006,8.84581,-13.34635c9.53907,-11.23484,18.97331,-22.231,40.39953,-43.10472c-18.40949,9.82106,-35.87138,27.10375,-43.00773,34.98061z" />
      <path class="blue" d="M313.22518,144.75728c-8.53075-.358-23.81564-9.17016-41.945-27.29947-20.20707-20.20708-25.19955-35.28427-25.04986-43.59118.06695-3.715-8.07752,3.24976-8.07752,3.24976s4.66842,15.1018,30.99573,42.39745,40.52707,32.01936,40.52707,32.01936C310.87252,150.76611,317.43253,144.93386,313.22518,144.75728Z" />
      <path class="blue" d="
            M274.51621,165.91628a2.74181,2.74181,0,0,1,-0.74591,-0.10151a2.543,2.543,0,0,1,-0.76447,-0.3646c-20.47188,-14.3963,-36.59336,-30.93623,-49.28615,-50.56564a2.53634,2.53634,0,0,1,-0.39555,-1.60633a3.1524,3.1524,0,0,1,0.85733,-1.85517l9.15886,-9.57112a3.17439,3.17439,0,0,1,0.6153,-0.5014a2.53723,2.53723,0,0,1,3.44107,0.73972c12.81845,19.07106,28.87369,35.42343,49.08311,49.99181a2.53554,2.53554,0,0,1,0.7131,3.32532a2.9698,2.9698,0,0,1,-0.5862,0.71805l-10.04652,9.0103a3.11088,3.11088,0,0,1,-2.044,0.781z

            m-59.59,-27.192c-0.08109,0,-0.1628,-0.00371,-0.24513,-0.01176a2.53763,2.53763,0,0,1,-1.87064,-1.1266c-1.623,-2.45808,-2.69765,-4.24145,-4.25879,-7.06723a2.53644,2.53644,0,0,1,0.4364,-3.02943l6.7893,-7.10932a2.53487,2.53487,0,0,1,4.02975,0.48468c1.42,2.4618,2.53175,4.226,4.24764,6.741a2.53714,2.53714,0,0,1,-0.28908,3.21081l-7.03194,7.15017a2.53343,2.53343,0,0,1,-1.807,0.758z

            m-15.709,16.134a2.61149,2.61149,0,0,1,-0.26865,-0.01424a2.53648,2.53648,0,0,1,-1.87312,-1.16373c-1.5011,-2.36895,-2.54289,-4.17646,-3.98023,-6.90629a2.536,2.536,0,0,1,0.4104,-2.93225l6.31513,-6.61164a2.53529,2.53529,0,0,1,4.05575,0.53111c1.31478,2.39371,2.35038,4.1127,3.95857,6.56769a2.53545,2.53545,0,0,1,-0.31384,3.16685l-6.4965,6.60483a2.53556,2.53556,0,0,1,-1.808,0.758z
            m-15.218,15.617a2.53875,2.53875,0,0,1,-2.16343,-1.21326c-1.4132,-2.312,-2.39,-4.07556,-3.73139,-6.74039a2.53532,2.53532,0,0,1,0.43083,-2.892l5.82364,-6.09538a2.53629,2.53629,0,0,1,4.07741,0.57134c1.21264,2.3052,2.21482,4.03718,3.6992,6.39066a2.53433,2.53433,0,0,1,-0.33674,3.13033l-5.992,6.091a2.533,2.533,0,0,1,-1.807,0.758z
            m-14.784,15.16a2.59287,2.59287,0,0,1,-0.30888,-0.01857a2.535,2.535,0,0,1,-1.87374,-1.22688c-1.32592,-2.24329,-2.24391,-3.96166,-3.50731,-6.56645a2.53557,2.53557,0,0,1,0.45126,-2.86168l5.81064,-6.05948a2.53551,2.53551,0,0,1,4.09227,0.61034c1.1235,2.221,2.06378,3.90409,3.46831,6.21052a2.53538,2.53538,0,0,1,-0.359,3.09814l-5.96725,6.05763a2.53362,2.53362,0,0,1,-1.807,0.756z

            m57.511,-31.071c-0.02786,0,-0.05509,-0.00062,-0.083,-0.00124a2.53509,2.53509,0,0,1,-1.80379,-0.84061c-2.091,-2.32933,-3.44541,-3.97157,-5.36681,-6.507a2.53538,2.53538,0,0,1,0.22346,-3.31913l7.16317,-7.20341a2.53528,2.53528,0,0,1,3.8032,0.23646c1.82236,2.356,3.19656,3.992,5.25044,6.25324a2.53541,2.53541,0,0,1,-0.10524,3.51844l-7.30988,7.14152a2.53391,2.53391,0,0,1,-1.772,0.722z
            m-16.166,15.976c-0.03219,0,-0.06376,-0.00062,-0.09595,-0.00185a2.53456,2.53456,0,0,1,-1.80751,-0.85919c-1.96535,-2.23338,-3.30055,-3.88985,-5.10249,-6.32875a2.53567,2.53567,0,0,1,0.242,-3.29437l6.61721,-6.65435a2.53552,2.53552,0,0,1,3.823,0.26246c1.719,2.28291,3.02014,3.86819,4.97064,6.05948a2.535,2.535,0,0,1,-0.12194,3.49988l-6.7534,6.59493a2.53606,2.53606,0,0,1,-1.772,0.722z
            m-15.638,15.454c-0.0359,0,-0.0718,-0.00062,-0.10832,-0.00247a2.53457,2.53457,0,0,1,-1.8106,-0.8759c-1.86632,-2.1622,-3.13714,-3.77225,-4.85551,-6.15357a2.53674,2.53674,0,0,1,0.25874,-3.27209l6.10653,-6.13933a2.53517,2.53517,0,0,1,3.84033,0.2866c1.62243,2.20677,2.85549,3.74253,4.7119,5.87006a2.53546,2.53546,0,0,1,-0.13927,3.48131l-6.23281,6.08425a2.5356,2.5356,0,0,1,-1.771,0.721z
            m-15.173,14.995c-0.03962,0,-0.07924,-0.00062,-0.11885,-0.0031a2.53462,2.53462,0,0,1,-1.81618,-0.89385c-1.77717,-2.09844,-2.98672,-3.66268,-4.62276,-5.979a2.53539,2.53539,0,0,1,0.27422,-3.251l6.07682,-6.10653a2.535,2.535,0,0,1,3.85457,0.307c1.52586,2.11949,2.7385,3.66021,4.473,5.685a2.53613,2.53613,0,0,1,-0.15351,3.46273l-6.195,6.05639a2.53434,2.53434,0,0,1,-1.772,0.722z

            m61.274,-32.235a2.52967,2.52967,0,0,1,-1.61747,-0.58372c-2.56889,-2.13,-4.20679,-3.602,-6.49094,-5.83355a2.53479,2.53479,0,0,1,0.01114,-3.63792l7.37674,-7.1186a2.53528,2.53528,0,0,1,3.53269,0.01052c2.24824,2.19686,3.89357,3.68434,6.28727,5.68374a2.5366,2.5366,0,0,1,0.10771,3.797l-7.4733,6.9979a2.53263,2.53263,0,0,1,-1.733,0.685z
            m-16.568,15.722a2.529,2.529,0,0,1,-1.61933,-0.585c-2.4717,-2.052,-4.044,-3.47141,-6.231,-5.62432a2.53529,2.53529,0,0,1,0.01734,-3.63111l6.81219,-6.57636a2.53646,2.53646,0,0,1,3.53888,0.0161c2.15292,2.117,3.72644,3.54507,6.01368,5.45719a2.53519,2.53519,0,0,1,0.10647,3.79576l-6.905,6.46308a2.53005,2.53005,0,0,1,-1.734,0.684z
            m-16.024,15.219a2.52932,2.52932,0,0,1,-1.62242,-0.58744c-2.34481,-1.95422,-3.90966,-3.37422,-5.98025,-5.42686a2.53513,2.53513,0,0,1,0.02476,-3.62492l6.28852,-6.06877a2.53474,2.53474,0,0,1,3.54506,0.02291c2.06378,2.04459,3.568,3.41693,5.74751,5.24425a2.53619,2.53619,0,0,1,0.10275,3.79452l-6.37332,5.9623a2.529,2.529,0,0,1,-1.732,0.684z
            m-15.541,14.776a2.52875,2.52875,0,0,1,-1.62738,-0.59177c-2.25134,-1.88551,-3.75305,-3.25785,-5.73884,-5.24363a2.53495,2.53495,0,0,1,0.03095,-3.615l6.24767,-6.04153a2.53608,2.53608,0,0,1,3.55373,0.02786c1.94678,1.94431,3.43612,3.31232,5.49371,5.04864a2.53511,2.53511,0,0,1,0.10151,3.78586l-6.32441,5.94187a2.5297,2.5297,0,0,1,-1.737,0.688z

            m64.903,-33.275a2.52861,2.52861,0,0,1,-1.34015,-0.38379c-3.04,-1.89416,-4.94465,-3.17613,-7.55006,-5.08021a2.53565,2.53565,0,0,1,-0.221,-3.91213l7.48383,-6.88958a2.53312,2.53312,0,0,1,3.23246,-0.16775c2.70384,2.01487,4.616,3.34079,7.30741,5.06659a2.53483,2.53483,0,0,1,0.31445,4.03037l-7.54324,6.69706a2.53205,2.53205,0,0,1,-1.684,0.64z
            m-16.898,15.352a2.53085,2.53085,0,0,1,-1.31911,-0.37078c-2.96567,-1.80751,-4.81094,-3.027,-7.31359,-4.832a2.53536,2.53536,0,0,1,-0.23646,-3.91895l6.90133,-6.37456a2.53547,2.53547,0,0,1,3.22133,-0.18075c2.60231,1.91212,4.44387,3.16561,7.0369,4.79051a2.53585,2.53585,0,0,1,0.34169,4.04028l-6.89577,6.15914a2.53523,2.53523,0,0,1,-1.736,0.687z
            m-32.097,29.053a2.53061,2.53061,0,0,1,-1.23678,-0.3225c-2.79235,-1.56115,-4.60481,-2.67536,-6.92672,-4.25755a2.53507,2.53507,0,0,1,-0.29526,-3.95485l22.30848,-20.678a2.8949,2.8949,0,0,1,0.59115,-0.41659a2.53718,2.53718,0,0,1,2.62584,0.1696c2.546,1.78028,4.34606,2.93225,6.88029,4.40364a2.535,2.535,0,0,1,0.4234,4.07617c-3.93381,3.54321,-7.677,6.89205,-11.47272,10.28856c-3.61564,3.23432,-7.27955,6.51136,-11.201,10.04095a2.53609,2.53609,0,0,1,-1.697,0.65z
            " />
    </g>

    <path aria-label="Math Converter" class="white" d="
          M477.385,93.29136v73.21777h-22.854v-36.505l-11.272,36.50488h-19.65l-11.272,-36.50488v36.50488h-22.958v-73.218h28.12841l16.13282,43.95117l15.71923,-43.95117z
          m36.607,16.495a15.77705,15.77705,0,0,1,6.3081,6.35938v-7.963h22.855v58.32617h-22.855v-7.96289a15.78531,15.78531,0,0,1,-6.3081,6.36035a19.7332,19.7332,0,0,1,-9.82422,2.32617a22.07337,22.07337,0,0,1,-12.30664,-3.56738a24.06717,24.06717,0,0,1,-8.63477,-10.3418a37.51143,37.51143,0,0,1,-3.1543,-15.97753a37.5238,37.5238,0,0,1,3.1543,-15.97754a24.07,24.07,0,0,1,8.63477,-10.34082a22.06633,22.06633,0,0,1,12.30664,-3.56836a19.72315,19.72315,0,0,1,9.825,2.327zm-8.273,20.32032q-2.38038,2.58691,-2.37891,7.23926q0,4.6538,2.37891,7.23925a8.493,8.493,0,0,0,12.20263,0q2.37745,-2.584,2.37842,-7.23925q0,-4.65381,-2.37842,-7.23926a8.493,8.493,0,0,0,-12.20263,0z
          m79.835,16.857v19.54492h-8.687q-23.99268,0,-23.99219,-23.88867v-15.305h-7.23877v-19.132h7.23877v-14.065h22.958v14.065h9.51416v19.132h-9.51416v15.71875a3.96755,3.96755,0,0,0,0.98242,2.999a4.65307,4.65307,0,0,0,3.25781,0.93164z
          m58.894,-32.473q5.63526,6.72363,5.63575,18.20117v33.81641h-22.8545v-30.9209a9.35622,9.35622,0,0,0,-2.22363,-6.5664a8.55206,8.55206,0,0,0,-11.94434,0a9.49394,9.49394,0,0,0,-2.17138,6.5664v30.9209h-22.958v-76.526h22.958v27.09375a20.7516,20.7516,0,0,1,7.187,-6.72168a21.13431,21.13431,0,0,1,10.70361,-2.585q10.029,0,15.667,6.722z
          m-203.931,59.728a31.456,31.456,0,0,1,12.20312,10.083a36.55654,36.55654,0,0,1,6.25635,15.20215h-24.198a13.10826,13.10826,0,0,0,-4.70557,-5.63574a12.36922,12.36922,0,0,0,-6.98046,-2.01661a10.9491,10.9491,0,0,0,-9.15235,4.34278q-3.36108,4.34472,-3.36084,11.68652q0,7.34327,3.36084,11.68555a10.9499,10.9499,0,0,0,9.15235,4.34375a12.37686,12.37686,0,0,0,6.98046,-2.0166a13.10542,13.10542,0,0,0,4.70557,-5.63672h24.19873a36.5512,36.5512,0,0,1,-6.25635,15.20215a31.44741,31.44741,0,0,1,-12.20312,10.083a39.11691,39.11691,0,0,1,-17.01172,3.56739a37.8611,37.8611,0,0,1,-19.23486,-4.70508a31.7282,31.7282,0,0,1,-12.56494,-13.18555a44.74259,44.74259,0,0,1,0,-38.67676a31.757,31.757,0,0,1,12.56494,-13.18554a37.88079,37.88079,0,0,1,19.23486,-4.70508a39.13093,39.13093,0,0,1,17.011,3.567z
          m68.201,14.943a26.7,26.7,0,0,1,11.013,10.394a33.63554,33.63554,0,0,1,0,31.748a26.67521,26.67521,0,0,1,-11.01318,10.39356a36.39677,36.39677,0,0,1,-31.645,0a26.656,26.656,0,0,1,-11.01367,-10.39356a33.63554,33.63554,0,0,1,0,-31.748a26.68076,26.68076,0,0,1,11.01367,-10.39356a36.39677,36.39677,0,0,1,31.645,0zm-21.2,18.771q-2.17164,2.53418,-2.17188,7.49707q0,4.96435,2.12012,7.49805a7.02916,7.02916,0,0,0,10.80664,0q2.17236,-2.53272,2.17187,-7.49805q0,-4.96436,-2.17187,-7.49707a6.97246,6.97246,0,0,0,-10.75488,0z
          m95.399,-15.357q5.63526,6.72363,5.63574,18.20117v33.81641h-22.855v-30.9209a9.35625,9.35625,0,0,0,-2.22363,-6.56641a8.55209,8.55209,0,0,0,-11.94434,0a9.494,9.494,0,0,0,-2.17138,6.56641v30.9209h-22.958v-58.327h22.958v8.89356a20.75151,20.75151,0,0,1,7.187,-6.72168a21.13421,21.13421,0,0,1,10.70361,-2.585q10.03,0,15.668,6.722z
          m36.142,30.197l9.30762,-36.50586h24.40576l-19.44189,58.32618h-28.646l-19.442,-58.326h24.40576z
          m88.026,-3.31h-36.7124q0.31055,4.34327,1.96484,5.94629a5.96862,5.96862,0,0,0,4.34375,1.60352a5.58243,5.58243,0,0,0,5.37744,-3.41309h24.30225a25.27984,25.27984,0,0,1,-5.22217,11.11719a28.06116,28.06116,0,0,1,-10.03125,7.75586a30.82453,30.82453,0,0,1,-13.28906,2.84375a32.27874,32.27874,0,0,1,-15.46045,-3.61914a25.72612,25.72612,0,0,1,-10.54834,-10.39356a35.26785,35.26785,0,0,1,0,-31.748a25.74974,25.74974,0,0,1,10.54834,-10.39356a32.3012,32.3012,0,0,1,15.46045,-3.61914a32.67077,32.67077,0,0,1,15.46,3.569a25.68335,25.68335,0,0,1,10.54834,10.18555a31.00142,31.00142,0,0,1,3.7749,15.61621a21.45125,21.45125,0,0,1,-0.517,4.55zm-22.75146,-9.41015a6.13912,6.13912,0,0,0,-1.86133,-4.91309a6.88562,6.88562,0,0,0,-4.65381,-1.60254q-6.30909,0,-7.23877,6.51563z
          m57.467,-21.148a20.1666,20.1666,0,0,1,10.54785,-3.05078v24.50879h-6.51513q-6.51491,0,-9.56543,2.27539q-3.052,2.27637,-3.05079,8.0664v23.88868h-22.958v-58.327h22.958v10.756a27.87294,27.87294,0,0,1,8.584,-8.118z
          m53.465,36.144v19.54493h-8.687q-23.99266,0,-23.99218,-23.88868v-15.306h-7.23877v-19.132h7.23877v-14.064h22.958v14.06445h9.51416v19.13184h-9.51416v15.71875a3.96752,3.96752,0,0,0,0.98242,2.999a4.65307,4.65307,0,0,0,3.25782,0.93164z
          m61.531,-5.585h-36.713q0.31055,4.34327,1.96485,5.94629a5.9686,5.9686,0,0,0,4.34375,1.60352a5.58245,5.58245,0,0,0,5.37744,-3.41309h24.30224a25.27971,25.27971,0,0,1,-5.22216,11.11719a28.06125,28.06125,0,0,1,-10.03125,7.75586a30.82458,30.82458,0,0,1,-13.28907,2.84375a32.2787,32.2787,0,0,1,-15.46044,-3.61914a25.72606,25.72606,0,0,1,-10.54834,-10.39356a35.26777,35.26777,0,0,1,0,-31.748a25.74968,25.74968,0,0,1,10.54834,-10.39356a32.30116,32.30116,0,0,1,15.46044,-3.61914a32.67071,32.67071,0,0,1,15.46045,3.56836a25.68329,25.68329,0,0,1,10.54834,10.18555a31.00132,31.00132,0,0,1,3.77491,15.61621a21.4519,21.4519,0,0,1,-0.517,4.55zm-22.75147,-9.41015a6.13909,6.13909,0,0,0,-1.86133,-4.91309a6.88562,6.88562,0,0,0,-4.65381,-1.60254q-6.30908,0,-7.23877,6.51563z
          m57.467,-21.148a20.16658,20.16658,0,0,1,10.54785,-3.05078v24.50879h-6.51514q-6.51489,0,-9.56543,2.27539q-3.052,2.27637,-3.05078,8.0664v23.88868h-22.958v-58.327h22.958v10.756a27.87283,27.87283,0,0,1,8.584,-8.118z
          " />
    <path aria-label="An All−In−One XAML Converter" class="yellow" d="
          M403.44029,286.6102h-10.9254l-1.8078,5.22689h-5.7771l9.8643,-27.47069h6.4059l9.8643,27.47069h-5.8164zm-1.4934,-4.4016l-3.9693,-11.4756l-3.9693,11.4756z
          m23.317,-12.458q3.8907,0,6.288,2.4759q2.3973,2.4366,2.3973,6.8382v12.77249h-5.502v-12.026q0,-2.5938,-1.2969,-3.9693q-1.2969,-1.4148,-3.537,-1.4148q-2.2794,0,-3.6156,1.4148q-1.2969,1.3755,-1.2969,3.9693v12.02579h-5.502v-21.772h5.502v2.7117q1.1004,-1.4148,2.7903,-2.2008q1.7292,-0.8253,3.7728,-0.8253z
          m36.746,16.86h-10.9254l-1.8078,5.22689h-5.7771l9.8643,-27.47069h6.4059l9.8643,27.47069h-5.8164zm-1.4934,-4.4016l-3.9693,-11.4756l-3.9693,11.4756z
          m16.464,-19.454v29.08199h-5.502v-29.081z
          m9.175,0v29.08199h-5.502v-29.082z
          m19.085,12.733v4.6374h-16.6632v-4.6374z
          m10.344,-11.083v27.43139h-5.502v-27.431z
          m16.209,5.345q3.8907,0,6.288,2.4759q2.39729,2.4366,2.39729,6.8382v12.77249h-5.50199v-12.026q0,-2.5938,-1.2969,-3.9693q-1.2969,-1.4148,-3.537,-1.4148q-2.2794,0,-3.6156,1.4148q-1.2969,1.3755,-1.2969,3.9693v12.02579h-5.502v-21.772h5.502v2.7117q1.1004,-1.4148,2.7903,-2.2008q1.7292,-0.8253,3.7728,-0.8253z
          m27.874,5.738v4.6374h-16.6632v-4.6374z
          m18.095,16.624q-3.8514,0,-7.074,-1.80779q-3.2226,-1.8078,-5.109,-4.9911q-1.8864,-3.2226,-1.8864,-7.2705q0,-4.0086,1.8864,-7.1919q1.8864,-3.2226,5.109,-5.0304q3.2226,-1.8078,7.074,-1.8078q3.8907,0,7.074,1.8078q3.2226,1.8078,5.0697,5.0304q1.8864,3.1833,1.8864,7.1919q0,4.0479,-1.8864,7.2705q-1.8471,3.1833,-5.0697,4.9911q-3.2226,1.80779,-7.074,1.80779zm0,-4.91249q2.4759,0,4.3623,-1.1004q1.8864,-1.1397,2.9475,-3.2226q1.0611,-2.0829,1.0611,-4.8339q0,-2.751,-1.0611,-4.7946q-1.0611,-2.0829,-2.9475,-3.1833q-1.8864,-1.1004,-4.3623,-1.1004q-2.4759,0,-4.4016,1.1004q-1.8864,1.1004,-2.9475,3.1833q-1.0611,2.0436,-1.0611,4.7946q0,2.751,1.0611,4.8339q1.0611,2.0829,2.9475,3.2226q1.9257,1.1004,4.4016,1.1004z
          m29.222,-17.449q3.8907,0,6.288,2.4759q2.3973,2.4366,2.3973,6.8382v12.77249h-5.502v-12.026q0,-2.5938,-1.2969,-3.9693q-1.2969,-1.4148,-3.537,-1.4148q-2.2794,0,-3.6156,1.4148q-1.2969,1.3755,-1.2969,3.9693v12.02579h-5.502v-21.772h5.502v2.7117q1.1004,-1.4148,2.7903,-2.2008q1.7292,-0.8253,3.7728,-0.8253z
          m32.832,10.729q0,1.179,-0.1572,2.1222h-15.9165q0.1965,2.358,1.6506,3.6942q1.4541,1.3362,3.5763,1.3362q3.0654,0,4.3623,-2.6331h5.9343q-0.9432,3.144,-3.6156,5.1876q-2.6724,2.00429,-6.5631,2.00429q-3.144,0,-5.6592,-1.3755q-2.4759,-1.41479,-3.8907,-3.96929q-1.3755,-2.5545,-1.3755,-5.895q0,-3.3798,1.3755,-5.9343q1.3755,-2.5545,3.8514,-3.93q2.4759,-1.3755,5.6985,-1.3755q3.1047,0,5.5413,1.3362q2.4759,1.3362,3.8121,3.8121q1.3755,2.4366,1.3755,5.6199zm-5.6985,-1.572q-0.0393,-2.1222,-1.5327,-3.3798q-1.4934,-1.2969,-3.6549,-1.2969q-2.0436,0,-3.4584,1.2576q-1.3755,1.2183,-1.6899,3.4191z
          m32.308,12.93l-5.9343,-9.23549l-5.3841,9.23549h-6.2094l8.646,-13.83359l-8.7639,-13.5978h6.3273l5.9343,9.1962l5.3448,-9.1962h6.2094l-8.6067,13.7943l8.7639,13.63709z
          m25.853,-5.227h-10.9254l-1.8078,5.22689h-5.7771l9.8643,-27.47069h6.4059l9.8643,27.47069h-5.8164zm-1.4934,-4.4016l-3.9693,-11.4756l-3.9693,11.4756z
          m41.219,-17.803v27.43139h-5.502v-17.842l-7.3491,17.84219h-4.1658l-7.3884,-17.84219v17.84219h-5.502v-27.431h6.2487l8.7246,20.3967l8.7246,-20.3967z
          m9.425,23.069h9.039v4.36229h-14.541v-27.431h5.502z
          m17.984,-9.393q0,-4.0479,1.8078,-7.2312q1.8471,-3.2226,4.9911,-4.9911q3.1833,-1.8078,7.1133,-1.8078q4.5981,0,8.0565,2.358q3.4584,2.358,4.8339,6.5238h-6.3273q-0.9432,-1.965,-2.6724,-2.9475q-1.6899,-0.9825,-3.93,-0.9825q-2.3973,0,-4.2837,1.1397q-1.8471,1.1004,-2.9082,3.144q-1.0218,2.0436,-1.0218,4.7946q0,2.7117,1.0218,4.7946q1.0611,2.0436,2.9082,3.1833q1.8864,1.1004,4.2837,1.1004q2.2401,0,3.93,-0.9825q1.7292,-1.0218,2.6724,-2.9868h6.3273q-1.3755,4.2051,-4.8339,6.5631q-3.4191,2.31869,-8.0565,2.31869q-3.93,0,-7.1133,-1.76849q-3.144,-1.8078,-4.9911,-4.9911q-1.8078,-3.1833,-1.8078,-7.2312z
          m39.356,14.109q-3.144,0,-5.6592,-1.3755q-2.5152,-1.41479,-3.9693,-3.96929q-1.4148,-2.5545,-1.4148,-5.895q0,-3.3405,1.4541,-5.895q1.4934,-2.5545,4.0479,-3.93q2.5545,-1.4148,5.6985,-1.4148q3.144,0,5.6985,1.4148q2.5545,1.3755,4.0086,3.93q1.4934,2.5545,1.4934,5.895q0,3.3405,-1.5327,5.895q-1.4934,2.5545,-4.0872,3.96929q-2.5545,1.3755,-5.7378,1.3755zm0,-4.79459q1.4934,0,2.7903,-0.7074q1.3362,-0.7467,2.1222,-2.2008q0.786,-1.4541,0.786,-3.537q0,-3.1047,-1.6506,-4.7553q-1.6113,-1.6899,-3.9693,-1.6899q-2.358,0,-3.9693,1.6899q-1.572,1.6506,-1.572,4.7553q0,3.1047,1.5327,4.7946q1.572,1.6506,3.93,1.6506z
          m26.101,-17.646q3.8907,0,6.288,2.4759q2.3973,2.4366,2.3973,6.8382v12.77249h-5.502v-12.025q0,-2.5938,-1.2969,-3.9693q-1.2969,-1.4148,-3.537,-1.4148q-2.2794,0,-3.6156,1.4148q-1.2969,1.3755,-1.2969,3.9693v12.02579h-5.502v-21.773h5.502v2.7117q1.1004,-1.4148,2.7903,-2.2008q1.7292,-0.8253,3.7728,-0.8253z
          m20.82,17.017l5.502,-16.7025h5.8557l-8.0565,21.77219h-6.681l-8.0172,-21.77219h5.895z
          m32.512,-6.288q0,1.179,-0.1572,2.1222h-15.9165q0.1965,2.358,1.6506,3.6942q1.4541,1.3362,3.5763,1.3362q3.0654,0,4.3623,-2.6331h5.9343q-0.9432,3.144,-3.6156,5.1876q-2.6724,2.00429,-6.5631,2.00429q-3.144,0,-5.6592,-1.3755q-2.4759,-1.41479,-3.8907,-3.96929q-1.3755,-2.5545,-1.3755,-5.895q0,-3.3798,1.3755,-5.9343q1.3755,-2.5545,3.8514,-3.93q2.4759,-1.3755,5.6985,-1.3755q3.1047,0,5.5413,1.3362q2.4759,1.3362,3.8121,3.8121q1.3755,2.4366,1.3755,5.6199zm-5.6985,-1.572q-0.0393,-2.1222,-1.5327,-3.3798q-1.4934,-1.2969,-3.6549,-1.2969q-2.0436,0,-3.4584,1.2576q-1.3755,1.2183,-1.6899,3.4191z
          m13.759,-5.463q1.0611,-1.7292,2.751,-2.7117q1.7292,-0.9825,3.93,-0.9825v5.7771h-1.4541q-2.5938,0,-3.93,1.2183q-1.2969,1.2183,-1.2969,4.2444v10.84679h-5.502v-21.772h5.502z
          m16.841,1.14v10.5324q0,1.1004,0.5109,1.6113q0.5502,0.4716,1.8078,0.4716h2.5545v4.63739h-3.4584q-6.9561,0,-6.9561,-6.75959v-10.4931h-2.5938v-4.5195h2.5938v-5.3841h5.5413v5.3841h4.8732v4.5195z
          m27.382,5.895q0,1.179,-0.1572,2.1222h-15.9165q0.1965,2.358,1.6506,3.6942q1.4541,1.3362,3.5763,1.3362q3.0654,0,4.3623,-2.6331h5.9343q-0.9432,3.144,-3.6156,5.1876q-2.6724,2.00429,-6.5631,2.00429q-3.144,0,-5.6592,-1.3755q-2.4759,-1.41479,-3.8907,-3.96929q-1.3755,-2.5545,-1.3755,-5.895q0,-3.3798,1.3755,-5.9343q1.3755,-2.5545,3.8514,-3.93q2.4759,-1.3755,5.6985,-1.3755q3.1047,0,5.5413,1.3362q2.4759,1.3362,3.8121,3.8121q1.3755,2.4366,1.3755,5.6199zm-5.6985,-1.572q-0.0393,-2.1222,-1.5327,-3.3798q-1.4934,-1.2969,-3.6549,-1.2969q-2.0436,0,-3.4584,1.2576q-1.3755,1.2183,-1.6899,3.4191z
          m13.789,-5.463q1.0611,-1.7292,2.751,-2.7117q1.7292,-0.9825,3.93,-0.9825v5.7771h-1.4541q-2.5938,0,-3.93,1.2183q-1.2969,1.2183,-1.2969,4.2444v10.84679h-5.502v-21.772h5.502z
          " />
  </g>
</svg>
