<?xml version="1.0" encoding="UTF-8" standalone="no"?>
<svg width="1000" height="384.93" viewBox="0 0 1000 384.93" xmlns="http://www.w3.org/2000/svg" xmlns:svg="http://www.w3.org/2000/svg">
  <style>
    .blue-fill {
      fill: #2b3154;
    }
    .white-fill {
      fill: #fff;
    }
    .yellow-fill {
      fill: #f1ae1d;
    }
    .blue-stroke {
      fill: none;
      stroke: #2b3154;
      stroke-miterlimit: 10;
      stroke-width: 3.80319px;
    }
    .translate {
      transform: translate(-17.391px,-27.504px);
    }
    .translate-extra {
      transform: translate(-24.909px,-27.504px);
    }
  </style>
  <title>Math Converter Logo</title>
  <g>
    <rect aria-label="Blue Background" class="blue-fill" width="1000" height="384.93" />
    <g aria-label="Math Converter" class="white-fill translate">
      <path d="M494.776,120.79536v73.21777H471.921V157.50825l-11.272,36.50488H441.00011l-11.272-36.50488v36.50488h-22.958V120.79536h28.12841l16.13282,43.95117,15.71923-43.95117Z" />
      <path d="M531.38341,137.29047a15.77705,15.77705,0,0,1,6.3081,6.35938V135.687h22.855v58.32617h-22.855v-7.96289a15.78531,15.78531,0,0,1-6.3081,6.36035,19.7332,19.7332,0,0,1-9.82422,2.32617,22.07337,22.07337,0,0,1-12.30664-3.56738,24.06717,24.06717,0,0,1-8.63477-10.3418,37.51143,37.51143,0,0,1-3.1543-15.97753,37.5238,37.5238,0,0,1,3.1543-15.97754,24.07,24.07,0,0,1,8.63477-10.34082,22.06633,22.06633,0,0,1,12.30664-3.56836A19.72315,19.72315,0,0,1,531.38341,137.29047Zm-8.273,20.32032q-2.38038,2.58691-2.37891,7.23926,0,4.6538,2.37891,7.23925a8.493,8.493,0,0,0,12.20263,0q2.37745-2.584,2.37842-7.23925,0-4.65381-2.37842-7.23926a8.493,8.493,0,0,0-12.20263,0Z" />
      <path d="M602.94542,174.46821v19.54492h-8.687q-23.99268,0-23.99219-23.88867V154.8188h-7.23877V135.687h7.23877V121.62251h22.958V135.687h9.51416V154.8188h-9.51416v15.71875a3.96755,3.96755,0,0,0,.98242,2.999,4.65307,4.65307,0,0,0,3.25781.93164Z" />
      <path d="M661.839,141.99555q5.63526,6.72363,5.63575,18.20117v33.81641h-22.8545v-30.9209a9.35622,9.35622,0,0,0-2.22363-6.5664,8.55206,8.55206,0,0,0-11.94434,0,9.49394,9.49394,0,0,0-2.17138,6.5664v30.9209h-22.958V117.48676h22.958v27.09375a20.7516,20.7516,0,0,1,7.187-6.72168,21.13431,21.13431,0,0,1,10.70361-2.585Q656.20129,135.27387,661.839,141.99555Z" />
      <path d="M457.90831,201.72309a31.456,31.456,0,0,1,12.20312,10.083,36.55654,36.55654,0,0,1,6.25635,15.20215H452.16905a13.10826,13.10826,0,0,0-4.70557-5.63574,12.36922,12.36922,0,0,0-6.98046-2.01661,10.9491,10.9491,0,0,0-9.15235,4.34278q-3.36108,4.34472-3.36084,11.68652,0,7.34327,3.36084,11.68555a10.9499,10.9499,0,0,0,9.15235,4.34375,12.37686,12.37686,0,0,0,6.98046-2.0166,13.10542,13.10542,0,0,0,4.70557-5.63672h24.19873a36.5512,36.5512,0,0,1-6.25635,15.20215,31.44741,31.44741,0,0,1-12.20312,10.083,39.11691,39.11691,0,0,1-17.01172,3.56739,37.8611,37.8611,0,0,1-19.23486-4.70508,31.7282,31.7282,0,0,1-12.56494-13.18555,44.74259,44.74259,0,0,1,0-38.67676,31.757,31.757,0,0,1,12.56494-13.18554,37.88079,37.88079,0,0,1,19.23486-4.70508A39.13093,39.13093,0,0,1,457.90831,201.72309Z" />
      <path d="M526.10948,216.66645A26.7,26.7,0,0,1,537.12266,227.06a33.63554,33.63554,0,0,1,0,31.748,26.67521,26.67521,0,0,1-11.01318,10.39356,36.39677,36.39677,0,0,1-31.645,0,26.656,26.656,0,0,1-11.01367-10.39356,33.63554,33.63554,0,0,1,0-31.748,26.68076,26.68076,0,0,1,11.01367-10.39356,36.39677,36.39677,0,0,1,31.645,0ZM504.90929,235.437q-2.17164,2.53418-2.17188,7.49707,0,4.96435,2.12012,7.49805a7.02916,7.02916,0,0,0,10.80664,0q2.17236-2.53272,2.17187-7.49805,0-4.96436-2.17187-7.49707a6.97246,6.97246,0,0,0-10.75488,0Z" />
      <path d="M600.30821,220.07954q5.63526,6.72363,5.63574,18.20117v33.81641H583.08946v-30.9209a9.35625,9.35625,0,0,0-2.22363-6.56641,8.55209,8.55209,0,0,0-11.94434,0,9.494,9.494,0,0,0-2.17138,6.56641v30.9209h-22.958V213.77094h22.958v8.89356a20.75151,20.75151,0,0,1,7.187-6.72168,21.13421,21.13421,0,0,1,10.70361-2.585Q594.67051,213.35786,600.30821,220.07954Z" />
      <path d="M636.4503,250.2768l9.30762-36.50586h24.40576l-19.44189,58.32618h-28.646L602.6339,213.77094h24.40576Z" />
      <path d="M724.47618,246.96723h-36.7124q.31055,4.34327,1.96484,5.94629a5.96862,5.96862,0,0,0,4.34375,1.60352,5.58243,5.58243,0,0,0,5.37744-3.41309h24.30225a25.27984,25.27984,0,0,1-5.22217,11.11719,28.06116,28.06116,0,0,1-10.03125,7.75586,30.82453,30.82453,0,0,1-13.28906,2.84375,32.27874,32.27874,0,0,1-15.46045-3.61914,25.72612,25.72612,0,0,1-10.54834-10.39356,35.26785,35.26785,0,0,1,0-31.748,25.74974,25.74974,0,0,1,10.54834-10.39356,32.3012,32.3012,0,0,1,15.46045-3.61914A32.67077,32.67077,0,0,1,710.67,216.61567a25.68335,25.68335,0,0,1,10.54834,10.18555,31.00142,31.00142,0,0,1,3.7749,15.61621A21.45125,21.45125,0,0,1,724.47618,246.96723Zm-22.75146-9.41015a6.13912,6.13912,0,0,0-1.86133-4.91309,6.88562,6.88562,0,0,0-4.65381-1.60254q-6.30909,0-7.23877,6.51563Z" />
      <path d="M759.192,216.40864a20.1666,20.1666,0,0,1,10.54785-3.05078v24.50879h-6.51513q-6.51491,0-9.56543,2.27539-3.052,2.27637-3.05079,8.0664v23.88868h-22.958V213.77094h22.958V224.5268A27.87294,27.87294,0,0,1,759.192,216.40864Z" />
      <path d="M812.65684,252.55219v19.54493h-8.687q-23.99266,0-23.99218-23.88868V232.90278h-7.23877V213.77094h7.23877V199.70649h22.958v14.06445h9.51416v19.13184h-9.51416v15.71875a3.96752,3.96752,0,0,0,.98242,2.999,4.65307,4.65307,0,0,0,3.25782.93164Z" />
      <path d="M874.18761,246.96723H837.4752q.31055,4.34327,1.96485,5.94629a5.9686,5.9686,0,0,0,4.34375,1.60352,5.58245,5.58245,0,0,0,5.37744-3.41309h24.30224a25.27971,25.27971,0,0,1-5.22216,11.11719,28.06125,28.06125,0,0,1-10.03125,7.75586,30.82458,30.82458,0,0,1-13.28907,2.84375,32.2787,32.2787,0,0,1-15.46044-3.61914,25.72606,25.72606,0,0,1-10.54834-10.39356,35.26777,35.26777,0,0,1,0-31.748,25.74968,25.74968,0,0,1,10.54834-10.39356,32.30116,32.30116,0,0,1,15.46044-3.61914,32.67071,32.67071,0,0,1,15.46045,3.56836,25.68329,25.68329,0,0,1,10.54834,10.18555,31.00132,31.00132,0,0,1,3.77491,15.61621A21.4519,21.4519,0,0,1,874.18761,246.96723Zm-22.75147-9.41015a6.13909,6.13909,0,0,0-1.86133-4.91309,6.88562,6.88562,0,0,0-4.65381-1.60254q-6.30908,0-7.23877,6.51563Z" />
      <path d="M908.90343,216.40864a20.16658,20.16658,0,0,1,10.54785-3.05078v24.50879h-6.51514q-6.51489,0-9.56543,2.27539-3.052,2.27637-3.05078,8.0664v23.88868h-22.958V213.77094h22.958V224.5268A27.87283,27.87283,0,0,1,908.90343,216.40864Z" />
    </g>
    <g aria-label="An All−In−One XAML Converter" class="yellow-fill translate">
      <path d="m 420.83129,314.1142 h -10.9254 l -1.8078,5.22689 h -5.7771 l 9.8643,-27.47069 h 6.4059 l 9.8643,27.47069 h -5.8164 z m -1.4934,-4.4016 -3.9693,-11.4756 -3.9693,11.4756 z" />
      <path d="m 442.65478,297.2545 q 3.8907,0 6.288,2.4759 2.3973,2.4366 2.3973,6.8382 v 12.77249 h -5.502 V 307.3153 q 0,-2.5938 -1.2969,-3.9693 -1.2969,-1.4148 -3.537,-1.4148 -2.2794,0 -3.6156,1.4148 -1.2969,1.3755 -1.2969,3.9693 v 12.02579 h -5.502 V 297.5689 h 5.502 v 2.7117 q 1.1004,-1.4148 2.7903,-2.2008 1.7292,-0.8253 3.7728,-0.8253 z" />
      <path d="m 479.40078,314.1142 h -10.9254 l -1.8078,5.22689 h -5.7771 l 9.8643,-27.47069 h 6.4059 l 9.8643,27.47069 h -5.8164 z m -1.4934,-4.4016 -3.9693,-11.4756 -3.9693,11.4756 z" />
      <path d="m 494.37117,290.2591 v 29.08199 h -5.502 V 290.2591 Z" />
      <path d="m 503.54656,290.2591 v 29.08199 h -5.502 V 290.2591 Z" />
      <path d="m 522.63176,302.9923 v 4.6374 h -16.6632 v -4.6374 z" />
      <path d="m 532.97575,291.9097 v 27.43139 h -5.502 V 291.9097 Z" />
      <path d="m 549.18426,297.2545 q 3.8907,0 6.288,2.4759 2.39729,2.4366 2.39729,6.8382 v 12.77249 h -5.50199 V 307.3153 q 0,-2.5938 -1.2969,-3.9693 -1.2969,-1.4148 -3.537,-1.4148 -2.2794,0 -3.6156,1.4148 -1.2969,1.3755 -1.2969,3.9693 v 12.02579 h -5.502 V 297.5689 h 5.502 v 2.7117 q 1.1004,-1.4148 2.7903,-2.2008 1.7292,-0.8253 3.7728,-0.8253 z" />
      <path d="m 577.05822,302.9923 v 4.6374 h -16.6632 v -4.6374 z" />
      <path d="m 595.15343,319.61619 q -3.8514,0 -7.074,-1.80779 -3.2226,-1.8078 -5.109,-4.9911 -1.8864,-3.2226 -1.8864,-7.2705 0,-4.0086 1.8864,-7.1919 1.8864,-3.2226 5.109,-5.0304 3.2226,-1.8078 7.074,-1.8078 3.8907,0 7.074,1.8078 3.2226,1.8078 5.0697,5.0304 1.8864,3.1833 1.8864,7.1919 0,4.0479 -1.8864,7.2705 -1.8471,3.1833 -5.0697,4.9911 -3.2226,1.80779 -7.074,1.80779 z m 0,-4.91249 q 2.4759,0 4.3623,-1.1004 1.8864,-1.1397 2.9475,-3.2226 1.0611,-2.0829 1.0611,-4.8339 0,-2.751 -1.0611,-4.7946 -1.0611,-2.0829 -2.9475,-3.1833 -1.8864,-1.1004 -4.3623,-1.1004 -2.4759,0 -4.4016,1.1004 -1.8864,1.1004 -2.9475,3.1833 -1.0611,2.0436 -1.0611,4.7946 0,2.751 1.0611,4.8339 1.0611,2.0829 2.9475,3.2226 1.9257,1.1004 4.4016,1.1004 z" />
      <path d="m 624.37581,297.2545 q 3.8907,0 6.288,2.4759 2.3973,2.4366 2.3973,6.8382 v 12.77249 h -5.502 V 307.3153 q 0,-2.5938 -1.2969,-3.9693 -1.2969,-1.4148 -3.537,-1.4148 -2.2794,0 -3.6156,1.4148 -1.2969,1.3755 -1.2969,3.9693 v 12.02579 h -5.502 V 297.5689 h 5.502 v 2.7117 q 1.1004,-1.4148 2.7903,-2.2008 1.7292,-0.8253 3.7728,-0.8253 z" />
      <path d="m 657.20749,307.9834 q 0,1.179 -0.1572,2.1222 h -15.9165 q 0.1965,2.358 1.6506,3.6942 1.4541,1.3362 3.5763,1.3362 3.0654,0 4.3623,-2.6331 h 5.9343 q -0.9432,3.144 -3.6156,5.1876 -2.6724,2.00429 -6.5631,2.00429 -3.144,0 -5.6592,-1.3755 -2.4759,-1.41479 -3.8907,-3.96929 -1.3755,-2.5545 -1.3755,-5.895 0,-3.3798 1.3755,-5.9343 1.3755,-2.5545 3.8514,-3.93 2.4759,-1.3755 5.6985,-1.3755 3.1047,0 5.5413,1.3362 2.4759,1.3362 3.8121,3.8121 1.3755,2.4366 1.3755,5.6199 z m -5.6985,-1.572 q -0.0393,-2.1222 -1.5327,-3.3798 -1.4934,-1.2969 -3.6549,-1.2969 -2.0436,0 -3.4584,1.2576 -1.3755,1.2183 -1.6899,3.4191 z" />
      <path d="m 683.81696,319.34109 -5.9343,-9.23549 -5.3841,9.23549 h -6.2094 l 8.646,-13.83359 -8.7639,-13.5978 h 6.3273 l 5.9343,9.1962 5.3448,-9.1962 h 6.2094 l -8.6067,13.7943 8.7639,13.63709 z" />
      <path d="m 709.66976,314.1142 h -10.9254 l -1.8078,5.22689 h -5.7771 l 9.8643,-27.47069 h 6.4059 l 9.8643,27.47069 h -5.8164 z m -1.4934,-4.4016 -3.9693,-11.4756 -3.9693,11.4756 z" />
      <path d="m 749.39546,291.9097 v 27.43139 h -5.502 V 301.4989 l -7.3491,17.84219 h -4.1658 l -7.3884,-17.84219 v 17.84219 h -5.502 V 291.9097 h 6.2487 l 8.7246,20.3967 8.7246,-20.3967 z" />
      <path d="m 758.82088,314.9788 h 9.039 v 4.36229 h -14.541 V 291.9097 h 5.502 z" />
      <path d="m 776.80479,305.5861 q 0,-4.0479 1.8078,-7.2312 1.8471,-3.2226 4.9911,-4.9911 3.1833,-1.8078 7.1133,-1.8078 4.5981,0 8.0565,2.358 3.4584,2.358 4.8339,6.5238 h -6.3273 q -0.9432,-1.965 -2.6724,-2.9475 -1.6899,-0.9825 -3.93,-0.9825 -2.3973,0 -4.2837,1.1397 -1.8471,1.1004 -2.9082,3.144 -1.0218,2.0436 -1.0218,4.7946 0,2.7117 1.0218,4.7946 1.0611,2.0436 2.9082,3.1833 1.8864,1.1004 4.2837,1.1004 2.2401,0 3.93,-0.9825 1.7292,-1.0218 2.6724,-2.9868 h 6.3273 q -1.3755,4.2051 -4.8339,6.5631 -3.4191,2.31869 -8.0565,2.31869 -3.93,0 -7.1133,-1.76849 -3.144,-1.8078 -4.9911,-4.9911 -1.8078,-3.1833 -1.8078,-7.2312 z" />
      <path d="m 816.16118,319.69479 q -3.144,0 -5.6592,-1.3755 -2.5152,-1.41479 -3.9693,-3.96929 -1.4148,-2.5545 -1.4148,-5.895 0,-3.3405 1.4541,-5.895 1.4934,-2.5545 4.0479,-3.93 2.5545,-1.4148 5.6985,-1.4148 3.144,0 5.6985,1.4148 2.5545,1.3755 4.0086,3.93 1.4934,2.5545 1.4934,5.895 0,3.3405 -1.5327,5.895 -1.4934,2.5545 -4.0872,3.96929 -2.5545,1.3755 -5.7378,1.3755 z m 0,-4.79459 q 1.4934,0 2.7903,-0.7074 1.3362,-0.7467 2.1222,-2.2008 0.786,-1.4541 0.786,-3.537 0,-3.1047 -1.6506,-4.7553 -1.6113,-1.6899 -3.9693,-1.6899 -2.358,0 -3.9693,1.6899 -1.572,1.6506 -1.572,4.7553 0,3.1047 1.5327,4.7946 1.572,1.6506 3.93,1.6506 z" />
      <path d="m 842.26191,297.2545 q 3.8907,0 6.288,2.4759 2.3973,2.4366 2.3973,6.8382 v 12.77249 h -5.502 V 307.3153 q 0,-2.5938 -1.2969,-3.9693 -1.2969,-1.4148 -3.537,-1.4148 -2.2794,0 -3.6156,1.4148 -1.2969,1.3755 -1.2969,3.9693 v 12.02579 h -5.502 V 297.5689 h 5.502 v 2.7117 q 1.1004,-1.4148 2.7903,-2.2008 1.7292,-0.8253 3.7728,-0.8253 z" />
      <path d="m 863.08236,314.2714 5.502,-16.7025 h 5.8557 l -8.0565,21.77219 h -6.681 l -8.0172,-21.77219 h 5.895 z" />
      <path d="m 895.5943,307.9834 q 0,1.179 -0.1572,2.1222 h -15.9165 q 0.1965,2.358 1.6506,3.6942 1.4541,1.3362 3.5763,1.3362 3.0654,0 4.3623,-2.6331 h 5.9343 q -0.9432,3.144 -3.6156,5.1876 -2.6724,2.00429 -6.5631,2.00429 -3.144,0 -5.6592,-1.3755 -2.4759,-1.41479 -3.8907,-3.96929 -1.3755,-2.5545 -1.3755,-5.895 0,-3.3798 1.3755,-5.9343 1.3755,-2.5545 3.8514,-3.93 2.4759,-1.3755 5.6985,-1.3755 3.1047,0 5.5413,1.3362 2.4759,1.3362 3.8121,3.8121 1.3755,2.4366 1.3755,5.6199 z m -5.6985,-1.572 q -0.0393,-2.1222 -1.5327,-3.3798 -1.4934,-1.2969 -3.6549,-1.2969 -2.0436,0 -3.4584,1.2576 -1.3755,1.2183 -1.6899,3.4191 z" />
      <path d="m 903.65492,300.9487 q 1.0611,-1.7292 2.751,-2.7117 1.7292,-0.9825 3.93,-0.9825 v 5.7771 h -1.4541 q -2.5938,0 -3.93,1.2183 -1.2969,1.2183 -1.2969,4.2444 v 10.84679 h -5.502 V 297.5689 h 5.502 z" />
      <path d="m 920.49599,302.0884 v 10.5324 q 0,1.1004 0.5109,1.6113 0.5502,0.4716 1.8078,0.4716 h 2.5545 v 4.63739 h -3.4584 q -6.9561,0 -6.9561,-6.75959 v -10.4931 h -2.5938 v -4.5195 h 2.5938 v -5.3841 h 5.5413 v 5.3841 h 4.8732 v 4.5195 z" />
      <path d="m 947.87802,307.9834 q 0,1.179 -0.1572,2.1222 h -15.9165 q 0.1965,2.358 1.6506,3.6942 1.4541,1.3362 3.5763,1.3362 3.0654,0 4.3623,-2.6331 h 5.9343 q -0.9432,3.144 -3.6156,5.1876 -2.6724,2.00429 -6.5631,2.00429 -3.144,0 -5.6592,-1.3755 -2.4759,-1.41479 -3.8907,-3.96929 -1.3755,-2.5545 -1.3755,-5.895 0,-3.3798 1.3755,-5.9343 1.3755,-2.5545 3.8514,-3.93 2.4759,-1.3755 5.6985,-1.3755 3.1047,0 5.5413,1.3362 2.4759,1.3362 3.8121,3.8121 1.3755,2.4366 1.3755,5.6199 z m -5.6985,-1.572 q -0.0393,-2.1222 -1.5327,-3.3798 -1.4934,-1.2969 -3.6549,-1.2969 -2.0436,0 -3.4584,1.2576 -1.3755,1.2183 -1.6899,3.4191 z" />
      <path d="m 955.96864,300.9487 q 1.0611,-1.7292 2.751,-2.7117 1.7292,-0.9825 3.93,-0.9825 v 5.7771 h -1.4541 q -2.5938,0 -3.93,1.2183 -1.2969,1.2183 -1.2969,4.2444 v 10.84679 h -5.502 V 297.5689 h 5.502 z" />
    </g>
    <g aria-label="Logo" class="translate-extra">
      <rect aria-label="Yellow circle" class="yellow-fill" x="79.649" y="82.24446" width="275.45047" height="275.45047" rx="137.7251" />
      <path aria-label="White rocket" class="white-fill" d="M347.92105,94.21964c-31.9576-8.29411-68.76281.83907-86.11751,11.25637l-24.94778,24.83466c-29.582-7.37642-62.22685-9.27524-102.75138,25.4255,18.0531.76757,42.10966,3.90409,55.44977,20.2543-.11467.11266.18.54163.18.54163l1.21047,1.2374a50.42263,50.42263,0,0,0-18.98409,27.4899,48.21078,48.21078,0,0,0-1.55526,9.38573,90.01506,90.01506,0,0,0-25.94841,10.93078,93.53423,93.53423,0,0,0-21.84174,18.72782,90.31479,90.31479,0,0,0-14.98653,24.64059c-3.88026,9.54018-6.41309,19.54337-9.47332,29.35838-3.00421,9.6355-6.589,19.31588-12.57688,27.54q-1.11444,1.53065-2.32948,2.98331a.9607.9607,0,0,0,.46967,1.56548,150.86266,150.86266,0,0,0,33.20985,3.369,153.02273,153.02273,0,0,0,32.98113-3.935,143.767,143.767,0,0,0,31.23181-11.01558c9.41885-4.64969,18.24035-10.65129,24.91482-18.85905,6.75618-8.30865,11.25669-18.13481,15.39817-27.93063q.52694-1.247,1.04752-2.49646a11.18431,11.18431,0,0,0,7.62836,2.26959,17.67588,17.67588,0,0,0,9.60269-3.92761,105.15613,105.15613,0,0,0,8.97672-8.19166q4.86262-4.65046,9.72541-9.30124l1.82252-1.74313,1.33226,1.36213c18.213,13.522,21.28325,40.10964,21.71129,57.93835,35.62508-40.079,33.7142-73.42225,26.82756-103.22384l24.82491-24.71426C346.57146,161.82784,356.542,123.85162,347.92105,94.21964Z" />
      <path aria-label="Yellow flame" class="yellow-fill" d="M208.93415,260.64586c-16.21362,33.00066-49.60059,39.43858-77.83378,43.15026,12.22216-6.91517,28.98482-16.5979,38.68228-46.64254-19.58383,1.64005-30.012,19.45532-30.012,19.45532,2.67143-19.94131,24.18717-42.01216,38.25582-47.49819C188.597,244.00367,208.93415,260.64586,208.93415,260.64586Z" />
      <g aria-label="Blue outline" class="blue-fill">
        <path class="blue-stroke" d="M208.93415,260.64586c-16.21362,33.00066-49.60059,39.43858-77.83378,43.15026,12.22216-6.91517,35.20606-26.41679,38.68228-46.64254-10.9105-.21852-30.012,19.45532-30.012,19.45532,3.61337-26.03858,24.18717-42.01216,38.25582-47.49819C188.597,244.00367,208.93415,260.64586,208.93415,260.64586Z" />
        <path d="M283.3008,311.73335a3.80273,3.80273,0,0,1-3.80133-3.71158c-.65863-27.40231-7.25851-45.38515-20.17723-54.9767l4.53424-6.10715c13.24123,9.83049,20.7201,26.6174,22.74055,51.16051,12.11339-15.30687,19.43813-30.53016,22.31838-46.31676,3.183-17.44864.52616-33.15538-2.49213-46.21958a3.803,3.803,0,0,1,1.022-3.55125l24.52391-24.415c5.75864-9.15082,10.72619-22.89716,13.318-36.88306,2.07368-11.18735,3.61192-27.583-.44383-43.335-16.96891-3.961-33.645-2.65183-44.83485-.7948-13.64173,2.26248-26.9981,6.70758-35.8555,11.9215l-24.61367,24.501a3.80131,3.80131,0,0,1-3.60326.99475c-12.05025-3.00344-28.13335-6.06134-45.70146-3.009-15.56128,2.70383-30.74867,9.79273-46.20534,21.59724,16.678,1.5859,36.41323,6.21795,48.47215,20.998a3.80493,3.80493,0,0,1,.60911,3.75429,3.412,3.412,0,0,0-.23956-2.95949l-6.273,4.30212a5.367,5.367,0,0,1-.5014-.90128c-12.70764-14.89275-35.79731-17.55077-52.1534-18.24654a3.803,3.803,0,0,1-2.312-6.68839c40.927-35.04522,74.21366-33.87467,104.05424-26.73812l23.43508-23.328a3.80279,3.80279,0,0,1,.7261-.56578c19.61084-11.77232,57.48-19.86463,89.02964-11.677a3.80184,3.80184,0,0,1,2.69641,2.619c9.36747,32.19591-2.20553,71.35878-13.41517,88.88417a3.84248,3.84248,0,0,1-.52059.64563l-23.33418,23.23019c6.772,30.56235,7.53273,64.38564-28.15874,104.53954A3.80265,3.80265,0,0,1,283.3008,311.73335Z" />
        <path d="M90.02977,327.02828c7.76461-8.78475,12.6789-21.86812,16.54861-34.46231,5.8286-18.97241,12.43591-40.47675,34.13089-57.86576a114.58,114.58,0,0,1,27.01924-15.721.48293.48293,0,0,1,.61418.17063,129.41891,129.41891,0,0,0,50.99416,51.97963C199.43133,313.90008,145.49814,334.97914,90.02977,327.02828Zm84.02761-134.5287c-3.51913,4.33431-9.78215,12.66584-10.06154,14.67529,0,0,1.23373,6.41126,4.29434,9.49807s-1.0322-2.50048-1.0322-2.50048c-13.63235.9605-23.75007,6.41276-31.80461,12.869-23.90675,19.16154-31.76729,43.58-37.67876,62.82012-4.5421,14.7837-9.77526,32.84811-28.10349,42.89257,0,0,8.08958,1.39135,8.88312,1.57275C132.195,346.58856,184.692,328.98424,211.3941,299.41479c6.70355-7.42339,12.03648-18.36,12.72616-26.23142,0,0-5.41937-4.08224-2.01313-.64684s8.81713,4.32278,8.81713,4.32278c4.73669-2.10166,9.02806-5.87242,15.48136-11.05994l6.95419-6.16314c7.93739-7.069,23.16066-20.71454,35.35321-42.716-21.0566,20.38335-33.04152,31.87331-43.96237,40.69533-6.96854,5.62929-9.96893,7.63412-13.08068,9.068-8.76137-2.793-21.48524-10.79838-35.31336-24.62651-14.1115-14.1115-18.92251-25.56846-22.61544-34.97483,0,0,.91525-4.006,8.84581-13.34635,9.53907-11.23484,18.97331-22.231,40.39953-43.10472-18.40949,9.82106-35.87138,27.10375-43.00773,34.98061Z" />
        <path d="M338.13418,172.26128c-8.53075-.358-23.81564-9.17016-41.945-27.29947-20.20707-20.20708-25.19955-35.28427-25.04986-43.59118.06695-3.715-8.07752,3.24976-8.07752,3.24976s4.66842,15.1018,30.99573,42.39745,40.52707,32.01936,40.52707,32.01936C335.78152,178.27011,342.34153,172.43786,338.13418,172.26128Z" />
      </g>
      <g aria-label="Calculator Keys" class="blue-fill">
        <path d="M250.75792,141.012c12.46151,19.27125,28.388,35.64341,48.615,49.86811a.51782.51782,0,0,0,.40307-.12778l10.04345-9.00757a.44913.44913,0,0,0,.08688-.10148c-20.48572-14.768-36.77032-31.39128-49.7046-50.63464a.634.634,0,0,0-.12052.10006l-9.15911,9.57142A.60785.60785,0,0,0,250.75792,141.012Zm48.60733,49.86528Zm.02391.01434Z" />
        <path d="M299.42521,193.42028a2.74181,2.74181,0,0,1-.74591-.10151,2.543,2.543,0,0,1-.76447-.3646c-20.47188-14.3963-36.59336-30.93623-49.28615-50.56564a2.53634,2.53634,0,0,1-.39555-1.60633,3.1524,3.1524,0,0,1,.85733-1.85517l9.15886-9.57112a3.17439,3.17439,0,0,1,.6153-.5014,2.53723,2.53723,0,0,1,3.44107.73972c12.81845,19.07106,28.87369,35.42343,49.08311,49.99181a2.53554,2.53554,0,0,1,.7131,3.32532,2.9698,2.9698,0,0,1-.5862.71805l-10.04652,9.0103A3.11088,3.11088,0,0,1,299.42521,193.42028Zm-45.50462-52.206c11.85589,17.9067,26.74121,33.15662,45.41362,46.52908l6.5646-5.888a200.14741,200.14741,0,0,1-46.03573-46.851Z" />
        <path d="M235.6804,156.79656c1.50659,2.72663,2.56542,4.48859,4.15505,6.8967l7.03185-7.15056.00285-.00336c-1.74016-2.55047-2.8923-4.37694-4.34983-6.90382l-6.83446,7.15522Z" />
        <path d="M239.83565,166.22844c-.08109,0-.1628-.00371-.24513-.01176a2.53763,2.53763,0,0,1-1.87064-1.1266c-1.623-2.45808-2.69765-4.24145-4.25879-7.06723a2.53644,2.53644,0,0,1,.4364-3.02943l6.7893-7.10932a2.53487,2.53487,0,0,1,4.02975.48468c1.42,2.4618,2.53175,4.226,4.24764,6.741a2.53714,2.53714,0,0,1-.28908,3.21081l-7.03194,7.15017A2.53343,2.53343,0,0,1,239.83565,166.22844Zm-1.02694-9.03568c.5014.88023.96752,1.66947,1.44972,2.45437l3.35318-3.4095c-.55835-.84495-1.0647-1.63419-1.56238-2.43828Z" />
        <path d="M220.2484,173.09765c1.4016,2.66241,2.399,4.397,3.87795,6.73l6.49652-6.605c-1.62421-2.48049-2.70917-4.27813-4.05928-6.73652Z" />
        <path d="M224.12643,182.36292a2.61149,2.61149,0,0,1-.26865-.01424,2.53648,2.53648,0,0,1-1.87312-1.16373c-1.5011-2.36895-2.54289-4.17646-3.98023-6.90629a2.536,2.536,0,0,1,.4104-2.93225l6.31513-6.61164a2.53529,2.53529,0,0,1,4.05575.53111c1.31478,2.39371,2.35038,4.1127,3.95857,6.56769a2.53545,2.53545,0,0,1-.31384,3.16685l-6.4965,6.60483A2.53556,2.53556,0,0,1,224.12643,182.36292Zm-.77686-8.84131c.43022.79109.83257,1.50667,1.24607,2.213l2.7973-2.84373c-.47787-.75457-.918-1.47015-1.347-2.19253Z" />
        <path d="M205.278,188.88622c1.30336,2.58729,2.24517,4.29193,3.6305,6.55846l5.99237-6.09108c-1.51988-2.40969-2.5438-4.17617-3.799-6.5627Z" />
        <path d="M208.9087,197.97991a2.53875,2.53875,0,0,1-2.16343-1.21326c-1.4132-2.312-2.39-4.07556-3.73139-6.74039a2.53532,2.53532,0,0,1,.43083-2.892l5.82364-6.09538a2.53629,2.53629,0,0,1,4.07741.57134c1.21264,2.3052,2.21482,4.03718,3.6992,6.39066a2.53433,2.53433,0,0,1-.33674,3.13033l-5.992,6.091A2.533,2.533,0,0,1,208.9087,197.97991Zm-.55215-8.64509c.36459.69825.71124,1.342,1.06407,1.9734l2.27486-2.312c-.4073-.66976-.7849-1.308-1.15321-1.94987Z" />
        <path d="M190.7156,204.2207c1.2173,2.51029,2.10874,4.18406,3.40847,6.38346l5.96754-6.05782c-1.42754-2.3436-2.3975-4.07586-3.56533-6.38526Z" />
        <path d="M194.12428,213.13945a2.59287,2.59287,0,0,1-.30888-.01857,2.535,2.535,0,0,1-1.87374-1.22688c-1.32592-2.24329-2.24391-3.96166-3.50731-6.56645a2.53557,2.53557,0,0,1,.45126-2.86168l5.81064-6.05948a2.53551,2.53551,0,0,1,4.09227.61034c1.1235,2.221,2.06378,3.90409,3.46831,6.21052a2.53538,2.53538,0,0,1-.359,3.09814l-5.96725,6.05763A2.53362,2.53362,0,0,1,194.12428,213.13945Zm-.3485-8.447c.30827.61282.60292,1.18168.90128,1.73756l2.23091-2.265c-.346-.5893-.66853-1.15321-.98113-1.71528Z" />
        <path d="M246.40244,173.18829c1.87094,2.46914,3.19906,4.07942,5.23248,6.34516l7.30986-7.14141c-2.09729-2.30938-3.51465-3.9971-5.37865-6.40657Z" />
        <path d="M251.63521,182.06889c-.02786,0-.05509-.00062-.083-.00124a2.53509,2.53509,0,0,1-1.80379-.84061c-2.091-2.32933-3.44541-3.97157-5.36681-6.507a2.53538,2.53538,0,0,1,.22346-3.31913l7.16317-7.20341a2.53528,2.53528,0,0,1,3.8032.23646c1.82236,2.356,3.19656,3.992,5.25044,6.25324a2.53541,2.53541,0,0,1-.10524,3.51844l-7.30988,7.14152A2.53391,2.53391,0,0,1,251.63521,182.06889Zm-1.86755-8.66861c.67719.86043,1.31725,1.641,2.00868,2.45066l3.6633-3.57849c-.73291-.83814-1.40453-1.63357-2.08916-2.4748Z" />
        <path d="M230.50283,189.34853c1.76815,2.39292,3.03851,3.96944,4.966,6.16111l6.75364-6.59528c-1.98474-2.22887-3.34053-3.88082-5.1024-6.22044Z" />
        <path d="M235.46916,198.0449c-.03219,0-.06376-.00062-.09595-.00185a2.53456,2.53456,0,0,1-1.80751-.85919c-1.96535-2.23338-3.30055-3.88985-5.10249-6.32875a2.53567,2.53567,0,0,1,.242-3.29437l6.61721-6.65435a2.53552,2.53552,0,0,1,3.823.26246c1.719,2.28291,3.02014,3.86819,4.97064,6.05948a2.535,2.535,0,0,1-.12194,3.49988l-6.7534,6.59493A2.53606,2.53606,0,0,1,235.46916,198.0449Zm-1.61995-8.46619c.60044.78057,1.17179,1.49429,1.78275,2.22782l3.10371-3.03067c-.64686-.757-1.24916-1.48624-1.85455-2.24577Z" />
        <path d="M215.11289,204.9836c1.6755,2.32208,2.89243,3.865,4.71814,5.98l6.23287-6.084c-1.88518-2.16033-3.18312-3.77584-4.84452-6.03555Z" />
        <path d="M219.83112,213.49909c-.0359,0-.0718-.00062-.10832-.00247a2.53457,2.53457,0,0,1-1.8106-.8759c-1.86632-2.1622-3.13714-3.77225-4.85551-6.15357a2.53674,2.53674,0,0,1,.25874-3.27209l6.10653-6.13933a2.53517,2.53517,0,0,1,3.84033.2866c1.62243,2.20677,2.85549,3.74253,4.7119,5.87006a2.53546,2.53546,0,0,1-.13927,3.48131l-6.23281,6.08425A2.5356,2.5356,0,0,1,219.83112,213.49909Zm-1.38843-8.26811c.52987.7032,1.03622,1.35068,1.57166,2.01055l2.58-2.51813c-.56949-.68215-1.10245-1.34078-1.63542-2.02169Z" />
        <path d="M200.17221,220.15506c1.58616,2.2469,2.75257,3.75618,4.4862,5.8037l6.1954-6.05643c-1.78984-2.08953-3.03269-3.6697-4.605-5.85333Z" />
        <path d="M204.65859,228.494c-.03962,0-.07924-.00062-.11885-.0031a2.53462,2.53462,0,0,1-1.81618-.89385c-1.77717-2.09844-2.98672-3.66268-4.62276-5.979a2.53539,2.53539,0,0,1,.27422-3.251l6.07682-6.10653a2.535,2.535,0,0,1,3.85457.307c1.52586,2.11949,2.7385,3.66021,4.473,5.685a2.53613,2.53613,0,0,1-.15351,3.46273l-6.195,6.05639A2.53434,2.53434,0,0,1,204.65859,228.494Zm-1.17117-8.07622c.46178.62458.90871,1.20769,1.37482,1.79637l2.53918-2.48285c-.49645-.60787-.965-1.1984-1.433-1.80627Z" />
        <path d="M266.97288,180.90964l-7.37651,7.1187c2.2343,2.18272,3.83712,3.62211,6.33707,5.695l7.47327-6.99735C270.95581,184.67825,269.26758,183.15151,266.97288,180.90964Z" />
        <path d="M265.93309,196.25906a2.52967,2.52967,0,0,1-1.61747-.58372c-2.56889-2.13-4.20679-3.602-6.49094-5.83355a2.53479,2.53479,0,0,1,.01114-3.63792l7.37674-7.1186a2.53528,2.53528,0,0,1,3.53269.01052c2.24824,2.19686,3.89357,3.68434,6.28727,5.68374a2.5366,2.5366,0,0,1,.10771,3.797l-7.4733,6.9979A2.53263,2.53263,0,0,1,265.93309,196.25906Zm-2.67722-8.239c.84928.79171,1.67009,1.52462,2.5887,2.31385l3.75862-3.5203c-.9-.78676-1.74127-1.55062-2.62645-2.38443Z" />
        <path d="M250.105,197.38826l-6.81213,6.57633c2.1271,2.09349,3.67567,3.49048,6.07241,5.48066l6.905-6.46282C253.93341,201.02866,252.30208,199.54784,250.105,197.38826Z" />
        <path d="M249.36468,211.98066a2.529,2.529,0,0,1-1.61933-.585c-2.4717-2.052-4.044-3.47141-6.231-5.62432a2.53529,2.53529,0,0,1,.01734-3.63111l6.81219-6.57636a2.53646,2.53646,0,0,1,3.53888.0161c2.15292,2.117,3.72644,3.54507,6.01368,5.45719a2.53519,2.53519,0,0,1,.10647,3.79576l-6.905,6.46308A2.53005,2.53005,0,0,1,249.36468,211.98066Zm-2.41785-8.01926c.76324.71371,1.50667,1.38039,2.33181,2.09225l3.19037-2.9861c-.80718-.71-1.56795-1.4033-2.364-2.15539Z" />
        <path d="M233.81223,213.31575l-6.2889,6.06892c2.03374,2.01581,3.53037,3.37279,5.81853,5.27959l6.37336-5.96232C237.48867,216.83508,235.91376,215.39734,233.81223,213.31575Z" />
        <path d="M233.341,227.19963a2.52932,2.52932,0,0,1-1.62242-.58744c-2.34481-1.95422-3.90966-3.37422-5.98025-5.42686a2.53513,2.53513,0,0,1,.02476-3.62492l6.28852-6.06877a2.53474,2.53474,0,0,1,3.54506.02291c2.06378,2.04459,3.568,3.41693,5.74751,5.24425a2.53619,2.53619,0,0,1,.10275,3.79452l-6.37332,5.9623A2.529,2.529,0,0,1,233.341,227.19963Zm-2.16839-7.81252c.68277.64006,1.35192,1.24359,2.08669,1.88179l2.65926-2.4878c-.71681-.63572-1.40268-1.264-2.11144-1.93688Z" />
        <path d="M218.47417,228.30623,212.2267,234.348c1.93865,1.93942,3.38424,3.259,5.5735,5.09269l6.32435-5.942C221.99347,231.70053,220.47418,230.30356,218.47417,228.30623Z" />
        <path d="M217.79954,241.976a2.52875,2.52875,0,0,1-1.62738-.59177c-2.25134-1.88551-3.75305-3.25785-5.73884-5.24363a2.53495,2.53495,0,0,1,.03095-3.615l6.24767-6.04153a2.53608,2.53608,0,0,1,3.55373.02786c1.94678,1.94431,3.43612,3.31232,5.49371,5.04864a2.53511,2.53511,0,0,1,.10151,3.78586l-6.32441,5.94187A2.5297,2.5297,0,0,1,217.79954,241.976Zm-1.93255-7.62124c.606.57134,1.20273,1.11359,1.85269,1.68246l2.62089-2.46242c-.63572-.56886-1.2473-1.1334-1.8756-1.7326Z" />
        <path d="M282.79205,194.30069,275.308,201.1899c2.55092,1.8647,4.42106,3.12228,7.39482,4.97566l7.54288-6.6969C287.4811,197.69582,285.53123,196.3417,282.79205,194.30069Z" />
        <path d="M282.70205,208.70115a2.52861,2.52861,0,0,1-1.34015-.38379c-3.04-1.89416-4.94465-3.17613-7.55006-5.08021a2.53565,2.53565,0,0,1-.221-3.91213l7.48383-6.88958a2.53312,2.53312,0,0,1,3.23246-.16775c2.70384,2.01487,4.616,3.34079,7.30741,5.06659a2.53483,2.53483,0,0,1,.31445,4.03037l-7.54324,6.69706A2.53205,2.53205,0,0,1,282.70205,208.70115Zm-3.37793-7.76238c.99474.6871,1.9833,1.3414,3.11919,2.06688l3.6441-3.23557c-1.03684-.702-2.03344-1.40205-3.11609-2.1882Z" />
        <path d="M265.55642,210.41925l-6.90115,6.37453c2.46267,1.77657,4.28482,2.9779,7.14979,4.72384l.162-.15215,6.78159-6.0505C270.08394,213.64549,268.187,212.35217,265.55642,210.41925Z" />
        <path d="M265.80433,224.0532a2.53085,2.53085,0,0,1-1.31911-.37078c-2.96567-1.80751-4.81094-3.027-7.31359-4.832a2.53536,2.53536,0,0,1-.23646-3.91895l6.90133-6.37456a2.53547,2.53547,0,0,1,3.22133-.18075c2.60231,1.91212,4.44387,3.16561,7.0369,4.79051a2.53585,2.53585,0,0,1,.34169,4.04028l-6.89577,6.15914A2.53523,2.53523,0,0,1,265.80433,224.0532Zm-3.11857-7.53025c.9.60911,1.80442,1.19531,2.8363,1.84156l3.05172-2.72241c-.9378-.624-1.84465-1.251-2.8233-1.94988Z" />
        <path d="M249.32049,225.72384a.20807.20807,0,0,0-.04057.02873l-22.30851,20.67769c2.28892,1.56018,4.03847,2.63159,6.736,4.14006,8.03918-7.23453,14.993-13.411,22.67289-20.328C253.77565,228.7298,251.89526,227.524,249.32049,225.72384Z" />
        <path d="M233.70684,253.10579a2.53061,2.53061,0,0,1-1.23678-.3225c-2.79235-1.56115-4.60481-2.67536-6.92672-4.25755a2.53507,2.53507,0,0,1-.29526-3.95485l22.30848-20.678a2.8949,2.8949,0,0,1,.59115-.41659,2.53718,2.53718,0,0,1,2.62584.1696c2.546,1.78028,4.34606,2.93225,6.88029,4.40364a2.535,2.535,0,0,1,.4234,4.07617c-3.93381,3.54321-7.677,6.89205-11.47272,10.28856-3.61564,3.23432-7.27955,6.51136-11.201,10.04095A2.53609,2.53609,0,0,1,233.70684,253.10579Zm-2.63451-7.019c.72548.45312,1.46706.897,2.29777,1.37668,3.41879-3.07276,6.65435-5.96725,9.85339-8.82893,2.965-2.65246,5.89792-5.27644,8.915-7.98646-.85733-.53792-1.69732-1.08636-2.58931-1.68866Z" />
      </g>
    </g>
  </g>
</svg>
